<?xml version="1.0" encoding="UTF-8"?>
<svg xmlns="http://www.w3.org/2000/svg" viewBox="0 0 1200 675" role="img" aria-labelledby="title desc">
  <title id="title">2048</title>
  <desc id="desc">Game thumbnail for 2048.</desc>
  <defs>
    <linearGradient id="bg-2048" x1="0" x2="1" y1="0" y2="1">
      <stop offset="0" stop-color="#fff0c2"/>
      <stop offset="1" stop-color="#ffffff"/>
    </linearGradient>
    <pattern id="dots-2048" width="42" height="42" patternUnits="userSpaceOnUse">
      <circle cx="8" cy="8" r="3" fill="#b7791f" opacity="0.24"/>
    </pattern>
  </defs>
  <rect width="1200" height="675" rx="36" fill="url(#bg-2048)"/>
  <rect width="1200" height="675" rx="36" fill="url(#dots-2048)"/>
  <circle cx="1010" cy="105" r="74" fill="#b7791f" opacity="0.18"/>
  <circle cx="150" cy="110" r="50" fill="#b7791f" opacity="0.15"/>
  
      <rect x="315" y="125" width="570" height="430" rx="34" fill="#bbada0" stroke="#14213d" stroke-width="10"/>
      <rect x="350" y="160" width="110" height="110" rx="18" fill="#eee4da" stroke="#14213d" stroke-width="7"/>
      <rect x="480" y="160" width="110" height="110" rx="18" fill="#ede0c8" stroke="#14213d" stroke-width="7"/>
      <rect x="610" y="160" width="110" height="110" rx="18" fill="#f2b179" stroke="#14213d" stroke-width="7"/>
      <rect x="740" y="160" width="110" height="110" rx="18" fill="#f59563" stroke="#14213d" stroke-width="7"/>
      <rect x="350" y="290" width="110" height="110" rx="18" fill="#f67c5f" stroke="#14213d" stroke-width="7"/>
      <rect x="480" y="290" width="110" height="110" rx="18" fill="#f65e3b" stroke="#14213d" stroke-width="7"/>
      <rect x="610" y="290" width="110" height="110" rx="18" fill="#edcf72" stroke="#14213d" stroke-width="7"/>
      <rect x="740" y="290" width="110" height="110" rx="18" fill="#edcc61" stroke="#14213d" stroke-width="7"/>
      <text x="386" y="231" fill="#14213d" font-family="Arial, Helvetica, sans-serif" font-size="42" font-weight="900">2</text>
      <text x="515" y="231" fill="#14213d" font-family="Arial, Helvetica, sans-serif" font-size="42" font-weight="900">4</text>
      <text x="639" y="231" fill="#14213d" font-family="Arial, Helvetica, sans-serif" font-size="42" font-weight="900">8</text>
      <text x="758" y="231" fill="#fffaf0" font-family="Arial, Helvetica, sans-serif" font-size="42" font-weight="900">16</text>
      <text x="367" y="361" fill="#fffaf0" font-family="Arial, Helvetica, sans-serif" font-size="42" font-weight="900">32</text>
      <text x="497" y="361" fill="#fffaf0" font-family="Arial, Helvetica, sans-serif" font-size="42" font-weight="900">64</text>
      <text x="619" y="361" fill="#fffaf0" font-family="Arial, Helvetica, sans-serif" font-size="36" font-weight="900">128</text>
      <text x="749" y="361" fill="#fffaf0" font-family="Arial, Helvetica, sans-serif" font-size="36" font-weight="900">256</text>
      <path d="M470 472 H730" stroke="#b7791f" stroke-width="26" stroke-linecap="round"/>
      <path d="M710 430 L780 472 L710 514" fill="none" stroke="#b7791f" stroke-width="26" stroke-linecap="round" stroke-linejoin="round"/>
    
  <rect x="48" y="552" width="1104" height="78" rx="24" fill="#fffaf0" stroke="#14213d" stroke-width="8"/>
  <text x="83" y="606" fill="#14213d" font-family="Arial, Helvetica, sans-serif" font-size="48" font-weight="900" letter-spacing="0">2048</text>
</svg>
