<?xml version="1.0" encoding="UTF-8"?>
<svg xmlns="http://www.w3.org/2000/svg" viewBox="0 0 1200 675" role="img" aria-labelledby="title desc">
  <title id="title">ABYSS SPEAR</title>
  <desc id="desc">Game thumbnail for ABYSS SPEAR.</desc>
  <defs>
    <linearGradient id="bg-abyss-spear-hunter" x1="0" x2="1" y1="0" y2="1">
      <stop offset="0" stop-color="#cffafe"/>
      <stop offset="1" stop-color="#ffffff"/>
    </linearGradient>
    <pattern id="dots-abyss-spear-hunter" width="42" height="42" patternUnits="userSpaceOnUse">
      <circle cx="8" cy="8" r="3" fill="#0891b2" opacity="0.24"/>
    </pattern>
  </defs>
  <rect width="1200" height="675" rx="36" fill="url(#bg-abyss-spear-hunter)"/>
  <rect width="1200" height="675" rx="36" fill="url(#dots-abyss-spear-hunter)"/>
  <circle cx="1010" cy="105" r="74" fill="#0891b2" opacity="0.18"/>
  <circle cx="150" cy="110" r="50" fill="#0891b2" opacity="0.15"/>
  
      <path d="M0 205 C210 145 385 245 570 205 C810 154 960 198 1200 115 L1200 675 L0 675 Z" fill="#0891b2"/>
      <path d="M0 392 C212 348 370 430 560 392 C795 344 960 390 1200 305 L1200 675 L0 675 Z" fill="#0e7490"/>
      <path d="M0 500 C250 455 455 530 665 490 C870 450 1010 485 1200 430 L1200 675 L0 675 Z" fill="#083344"/>
      <path d="M640 355 C760 270 915 288 1020 365 C925 442 758 442 640 355 Z" fill="#17153b" stroke="#fffaf0" stroke-width="10"/>
      <path d="M1006 365 L1112 305 L1098 422 Z" fill="#17153b" stroke="#fffaf0" stroke-width="10"/>
      <circle cx="706" cy="332" r="13" fill="#ff5c7a" stroke="#14213d" stroke-width="5"/>
      <path d="M445 382 L560 414" stroke="#fff4a8" stroke-width="18" stroke-linecap="round"/>
      <path d="M558 414 L650 384" stroke="#fbbf24" stroke-width="10" stroke-linecap="round"/>
      <circle cx="398" cy="365" r="43" fill="#111827" stroke="#fffaf0" stroke-width="10"/>
      <path d="M424 382 L474 408" stroke="#fffaf0" stroke-width="15" stroke-linecap="round"/>
      <path d="M265 515 C290 445 322 445 346 515 M370 520 C400 430 430 430 462 520" stroke="#22d3ee" stroke-width="21" stroke-linecap="round"/>
      <path d="M250 420 L286 380 L322 420 L286 462 Z" fill="#8b5cf6" stroke="#fff7cc" stroke-width="8"/>
      <circle cx="200" cy="292" r="17" fill="none" stroke="#dff9ff" stroke-width="6"/>
      <circle cx="285" cy="250" r="11" fill="none" stroke="#dff9ff" stroke-width="5"/>
      <circle cx="510" cy="288" r="13" fill="none" stroke="#dff9ff" stroke-width="5"/>
    
  <rect x="48" y="552" width="1104" height="78" rx="24" fill="#fffaf0" stroke="#14213d" stroke-width="8"/>
  <text x="83" y="606" fill="#14213d" font-family="Arial, Helvetica, sans-serif" font-size="48" font-weight="900" letter-spacing="0">ABYSS SPEAR</text>
</svg>
