<?xml version="1.0" encoding="UTF-8"?>
<svg xmlns="http://www.w3.org/2000/svg" viewBox="0 0 1200 675" role="img" aria-labelledby="title desc">
  <title id="title">ALIEN INVASION</title>
  <desc id="desc">Game thumbnail for ALIEN INVASION.</desc>
  <defs>
    <linearGradient id="bg-alien-invasion" x1="0" x2="1" y1="0" y2="1">
      <stop offset="0" stop-color="#dcfce7"/>
      <stop offset="1" stop-color="#ffffff"/>
    </linearGradient>
    <pattern id="dots-alien-invasion" width="42" height="42" patternUnits="userSpaceOnUse">
      <circle cx="8" cy="8" r="3" fill="#16a34a" opacity="0.24"/>
    </pattern>
  </defs>
  <rect width="1200" height="675" rx="36" fill="url(#bg-alien-invasion)"/>
  <rect width="1200" height="675" rx="36" fill="url(#dots-alien-invasion)"/>
  <circle cx="1010" cy="105" r="74" fill="#16a34a" opacity="0.18"/>
  <circle cx="150" cy="110" r="50" fill="#16a34a" opacity="0.15"/>
  
      <rect x="112" y="110" width="976" height="430" rx="28" fill="#102a43" stroke="#14213d" stroke-width="10"/>
      <circle cx="210" cy="170" r="5" fill="#fffaf0"/><circle cx="330" cy="250" r="5" fill="#fffaf0"/><circle cx="915" cy="210" r="5" fill="#fffaf0"/><circle cx="760" cy="140" r="5" fill="#fffaf0"/>
      <g fill="#84cc16" stroke="#fffaf0" stroke-width="8">
        <path d="M285 238 H365 V302 H333 V336 H317 V302 H285 Z"/>
        <path d="M455 238 H535 V302 H503 V336 H487 V302 H455 Z"/>
        <path d="M625 238 H705 V302 H673 V336 H657 V302 H625 Z"/>
        <path d="M795 238 H875 V302 H843 V336 H827 V302 H795 Z"/>
      </g>
      <circle cx="322" cy="270" r="7" fill="#14213d"/><circle cx="493" cy="270" r="7" fill="#14213d"/><circle cx="663" cy="270" r="7" fill="#14213d"/><circle cx="833" cy="270" r="7" fill="#14213d"/>
      <path d="M590 458 L640 458 L660 515 L570 515 Z" fill="#38bdf8" stroke="#fffaf0" stroke-width="9"/>
      <path d="M615 430 V342" stroke="#facc15" stroke-width="14" stroke-linecap="round"/>
    
  <rect x="48" y="552" width="1104" height="78" rx="24" fill="#fffaf0" stroke="#14213d" stroke-width="8"/>
  <text x="83" y="606" fill="#14213d" font-family="Arial, Helvetica, sans-serif" font-size="48" font-weight="900" letter-spacing="0">ALIEN INVASION</text>
</svg>
