<?xml version="1.0" encoding="UTF-8"?>
<svg xmlns="http://www.w3.org/2000/svg" viewBox="0 0 1200 675" role="img" aria-labelledby="title desc">
  <title id="title">ASTEROIDS</title>
  <desc id="desc">Game thumbnail for ASTEROIDS.</desc>
  <defs>
    <linearGradient id="bg-asteroids" x1="0" x2="1" y1="0" y2="1">
      <stop offset="0" stop-color="#e9e5ff"/>
      <stop offset="1" stop-color="#ffffff"/>
    </linearGradient>
    <pattern id="dots-asteroids" width="42" height="42" patternUnits="userSpaceOnUse">
      <circle cx="8" cy="8" r="3" fill="#38bdf8" opacity="0.24"/>
    </pattern>
  </defs>
  <rect width="1200" height="675" rx="36" fill="url(#bg-asteroids)"/>
  <rect width="1200" height="675" rx="36" fill="url(#dots-asteroids)"/>
  <circle cx="1010" cy="105" r="74" fill="#38bdf8" opacity="0.18"/>
  <circle cx="150" cy="110" r="50" fill="#38bdf8" opacity="0.15"/>
  
      <rect x="112" y="108" width="976" height="430" rx="28" fill="#111827" stroke="#14213d" stroke-width="10"/>
      <circle cx="226" cy="190" r="4" fill="#fffaf0"/><circle cx="383" cy="315" r="4" fill="#fffaf0"/><circle cx="850" cy="176" r="4" fill="#fffaf0"/><circle cx="985" cy="405" r="4" fill="#fffaf0"/>
      <polygon points="575,338 662,292 637,386" fill="#fffaf0" stroke="#38bdf8" stroke-width="10"/>
      <path d="M542 358 L485 392" stroke="#fb7185" stroke-width="14" stroke-linecap="round"/>
      <path d="M332 225 L382 190 L438 218 L430 282 L370 308 L320 275 Z" fill="none" stroke="#c4b5fd" stroke-width="12" stroke-linejoin="round"/>
      <path d="M807 335 L852 302 L914 328 L927 388 L872 425 L812 399 Z" fill="none" stroke="#93c5fd" stroke-width="12" stroke-linejoin="round"/>
      <path d="M695 158 L730 135 L772 156 L765 205 L718 219 L684 192 Z" fill="none" stroke="#facc15" stroke-width="10" stroke-linejoin="round"/>
    
  <rect x="48" y="552" width="1104" height="78" rx="24" fill="#fffaf0" stroke="#14213d" stroke-width="8"/>
  <text x="83" y="606" fill="#14213d" font-family="Arial, Helvetica, sans-serif" font-size="48" font-weight="900" letter-spacing="0">ASTEROIDS</text>
</svg>
