<?xml version="1.0" encoding="UTF-8"?>
<svg xmlns="http://www.w3.org/2000/svg" viewBox="0 0 1200 675" role="img" aria-labelledby="title desc">
  <title id="title">BAMBOO FORT</title>
  <desc id="desc">Game thumbnail for BAMBOO FORT.</desc>
  <defs>
    <linearGradient id="bg-bamboo-fort" x1="0" x2="1" y1="0" y2="1">
      <stop offset="0" stop-color="#d9f99d"/>
      <stop offset="1" stop-color="#ffffff"/>
    </linearGradient>
    <pattern id="dots-bamboo-fort" width="42" height="42" patternUnits="userSpaceOnUse">
      <circle cx="8" cy="8" r="3" fill="#1f7a4d" opacity="0.24"/>
    </pattern>
  </defs>
  <rect width="1200" height="675" rx="36" fill="url(#bg-bamboo-fort)"/>
  <rect width="1200" height="675" rx="36" fill="url(#dots-bamboo-fort)"/>
  <circle cx="1010" cy="105" r="74" fill="#1f7a4d" opacity="0.18"/>
  <circle cx="150" cy="110" r="50" fill="#1f7a4d" opacity="0.15"/>
  
      <rect x="112" y="300" width="440" height="190" rx="18" fill="#8b5a2b" stroke="#14213d" stroke-width="10"/>
      <rect x="146" y="240" width="34" height="250" rx="12" fill="#5fb857" stroke="#14213d" stroke-width="8"/>
      <rect x="235" y="215" width="34" height="275" rx="12" fill="#78d66d" stroke="#14213d" stroke-width="8"/>
      <rect x="324" y="245" width="34" height="245" rx="12" fill="#5fb857" stroke="#14213d" stroke-width="8"/>
      <rect x="412" y="220" width="34" height="270" rx="12" fill="#78d66d" stroke="#14213d" stroke-width="8"/>
      <path d="M105 305 L330 145 L565 305 Z" fill="#fbbf24" stroke="#14213d" stroke-width="10"/>
      <circle cx="820" cy="330" r="76" fill="#f97316" stroke="#14213d" stroke-width="10"/>
      <path d="M770 328 C805 285 850 285 885 328 C850 360 805 360 770 328 Z" fill="#fde68a" stroke="#14213d" stroke-width="8"/>
    
  <rect x="48" y="552" width="1104" height="78" rx="24" fill="#fffaf0" stroke="#14213d" stroke-width="8"/>
  <text x="83" y="606" fill="#14213d" font-family="Arial, Helvetica, sans-serif" font-size="48" font-weight="900" letter-spacing="0">BAMBOO FORT</text>
</svg>
