<?xml version="1.0" encoding="UTF-8"?>
<svg xmlns="http://www.w3.org/2000/svg" viewBox="0 0 1200 675" role="img" aria-labelledby="title desc">
  <title id="title">CLUMSY BIRD</title>
  <desc id="desc">Game thumbnail for CLUMSY BIRD.</desc>
  <defs>
    <linearGradient id="bg-clumsy-bird" x1="0" x2="1" y1="0" y2="1">
      <stop offset="0" stop-color="#dff5ff"/>
      <stop offset="1" stop-color="#ffffff"/>
    </linearGradient>
    <pattern id="dots-clumsy-bird" width="42" height="42" patternUnits="userSpaceOnUse">
      <circle cx="8" cy="8" r="3" fill="#1478a8" opacity="0.24"/>
    </pattern>
  </defs>
  <rect width="1200" height="675" rx="36" fill="url(#bg-clumsy-bird)"/>
  <rect width="1200" height="675" rx="36" fill="url(#dots-clumsy-bird)"/>
  <circle cx="1010" cy="105" r="74" fill="#1478a8" opacity="0.18"/>
  <circle cx="150" cy="110" r="50" fill="#1478a8" opacity="0.15"/>
  
      <rect x="855" y="100" width="95" height="250" rx="22" fill="#22c55e" stroke="#14213d" stroke-width="10"/>
      <rect x="855" y="470" width="95" height="140" rx="22" fill="#22c55e" stroke="#14213d" stroke-width="10"/>
      <circle cx="458" cy="360" r="82" fill="#facc15" stroke="#14213d" stroke-width="10"/>
      <path d="M392 370 C325 332 285 372 318 432 C372 430 414 402 433 372 Z" fill="#f97316" stroke="#14213d" stroke-width="8"/>
      <path d="M518 356 L610 390 L515 424 Z" fill="#fb7185" stroke="#14213d" stroke-width="8"/>
      <circle cx="492" cy="334" r="10" fill="#14213d"/>
      <path d="M140 520 C300 462 470 510 620 476 C820 430 960 478 1120 420" fill="none" stroke="#93c5fd" stroke-width="18" stroke-linecap="round"/>
    
  <rect x="48" y="552" width="1104" height="78" rx="24" fill="#fffaf0" stroke="#14213d" stroke-width="8"/>
  <text x="83" y="606" fill="#14213d" font-family="Arial, Helvetica, sans-serif" font-size="48" font-weight="900" letter-spacing="0">CLUMSY BIRD</text>
</svg>
