<?xml version="1.0" encoding="UTF-8"?>
<svg xmlns="http://www.w3.org/2000/svg" viewBox="0 0 1200 675" role="img" aria-labelledby="title desc">
  <title id="title">COIL</title>
  <desc id="desc">Game thumbnail for COIL.</desc>
  <defs>
    <linearGradient id="bg-coil" x1="0" x2="1" y1="0" y2="1">
      <stop offset="0" stop-color="#ffe1dc"/>
      <stop offset="1" stop-color="#ffffff"/>
    </linearGradient>
    <pattern id="dots-coil" width="42" height="42" patternUnits="userSpaceOnUse">
      <circle cx="8" cy="8" r="3" fill="#d34835" opacity="0.24"/>
    </pattern>
  </defs>
  <rect width="1200" height="675" rx="36" fill="url(#bg-coil)"/>
  <rect width="1200" height="675" rx="36" fill="url(#dots-coil)"/>
  <circle cx="1010" cy="105" r="74" fill="#d34835" opacity="0.18"/>
  <circle cx="150" cy="110" r="50" fill="#d34835" opacity="0.15"/>
  
      <path d="M600 338 m-195 0 a195 195 0 1 0 390 0 a195 195 0 1 0 -390 0" fill="none" stroke="#fb7185" stroke-width="24"/>
      <path d="M600 338 m-130 0 a130 130 0 1 0 260 0 a130 130 0 1 0 -260 0" fill="none" stroke="#fbbf24" stroke-width="22"/>
      <path d="M600 338 m-70 0 a70 70 0 1 0 140 0 a70 70 0 1 0 -140 0" fill="none" stroke="#60a5fa" stroke-width="20"/>
      <circle cx="600" cy="338" r="28" fill="#14213d"/>
      <circle cx="860" cy="250" r="34" fill="#a3e635" stroke="#14213d" stroke-width="8"/>
      <circle cx="342" cy="455" r="34" fill="#a78bfa" stroke="#14213d" stroke-width="8"/>
      <path d="M290 245 C390 180 470 190 540 245" fill="none" stroke="#14213d" stroke-width="16" stroke-linecap="round"/>
    
  <rect x="48" y="552" width="1104" height="78" rx="24" fill="#fffaf0" stroke="#14213d" stroke-width="8"/>
  <text x="83" y="606" fill="#14213d" font-family="Arial, Helvetica, sans-serif" font-size="48" font-weight="900" letter-spacing="0">COIL</text>
</svg>
