<?xml version="1.0" encoding="UTF-8"?>
<svg xmlns="http://www.w3.org/2000/svg" viewBox="0 0 1200 675" role="img" aria-labelledby="title desc">
  <title id="title">DINO GROWTH</title>
  <desc id="desc">Game thumbnail for DINO GROWTH.</desc>
  <defs>
    <linearGradient id="bg-dino-growth-explorer" x1="0" x2="1" y1="0" y2="1">
      <stop offset="0" stop-color="#dbeafe"/>
      <stop offset="1" stop-color="#ffffff"/>
    </linearGradient>
    <pattern id="dots-dino-growth-explorer" width="42" height="42" patternUnits="userSpaceOnUse">
      <circle cx="8" cy="8" r="3" fill="#6d5dfc" opacity="0.24"/>
    </pattern>
  </defs>
  <rect width="1200" height="675" rx="36" fill="url(#bg-dino-growth-explorer)"/>
  <rect width="1200" height="675" rx="36" fill="url(#dots-dino-growth-explorer)"/>
  <circle cx="1010" cy="105" r="74" fill="#6d5dfc" opacity="0.18"/>
  <circle cx="150" cy="110" r="50" fill="#6d5dfc" opacity="0.15"/>
  
      <path d="M105 455 C245 315 408 370 540 292 C675 212 832 228 1002 350 L1002 520 L105 520 Z" fill="#60a5fa" stroke="#14213d" stroke-width="10"/>
      <path d="M150 465 C310 330 470 430 620 340 C755 260 895 286 1030 448 L1030 520 L150 520 Z" fill="#34d399" stroke="#14213d" stroke-width="10"/>
      <ellipse cx="510" cy="382" rx="145" ry="72" fill="#a3e635" stroke="#14213d" stroke-width="10"/>
      <circle cx="646" cy="340" r="48" fill="#a3e635" stroke="#14213d" stroke-width="10"/>
      <path d="M383 390 C300 385 258 346 235 300" fill="none" stroke="#14213d" stroke-width="28" stroke-linecap="round"/>
      <rect x="440" y="438" width="28" height="85" rx="12" fill="#14213d"/>
      <rect x="545" y="438" width="28" height="85" rx="12" fill="#14213d"/>
      <circle cx="663" cy="332" r="7" fill="#14213d"/>
      <path d="M684 356 L752 382 L683 394 Z" fill="#facc15" stroke="#14213d" stroke-width="8"/>
    
  <rect x="48" y="552" width="1104" height="78" rx="24" fill="#fffaf0" stroke="#14213d" stroke-width="8"/>
  <text x="83" y="606" fill="#14213d" font-family="Arial, Helvetica, sans-serif" font-size="48" font-weight="900" letter-spacing="0">DINO GROWTH</text>
</svg>
