<?xml version="1.0" encoding="UTF-8"?>
<svg xmlns="http://www.w3.org/2000/svg" viewBox="0 0 1200 675" role="img" aria-labelledby="title desc">
  <title id="title">DINO FARM</title>
  <desc id="desc">Game thumbnail for DINO FARM.</desc>
  <defs>
    <linearGradient id="bg-dino-farm-tag-feed" x1="0" x2="1" y1="0" y2="1">
      <stop offset="0" stop-color="#ddf7c7"/>
      <stop offset="1" stop-color="#ffffff"/>
    </linearGradient>
    <pattern id="dots-dino-farm-tag-feed" width="42" height="42" patternUnits="userSpaceOnUse">
      <circle cx="8" cy="8" r="3" fill="#2f7c36" opacity="0.24"/>
    </pattern>
  </defs>
  <rect width="1200" height="675" rx="36" fill="url(#bg-dino-farm-tag-feed)"/>
  <rect width="1200" height="675" rx="36" fill="url(#dots-dino-farm-tag-feed)"/>
  <circle cx="1010" cy="105" r="74" fill="#2f7c36" opacity="0.18"/>
  <circle cx="150" cy="110" r="50" fill="#2f7c36" opacity="0.15"/>
  
      <rect x="95" y="390" width="1010" height="160" rx="28" fill="#86efac" stroke="#14213d" stroke-width="10"/>
      <path d="M132 388 L245 300 L352 388 Z" fill="#facc15" stroke="#14213d" stroke-width="10"/>
      <rect x="172" y="386" width="140" height="110" rx="12" fill="#b45309" stroke="#14213d" stroke-width="8"/>
      <ellipse cx="605" cy="390" rx="122" ry="58" fill="#84cc16" stroke="#14213d" stroke-width="10"/>
      <circle cx="714" cy="358" r="38" fill="#84cc16" stroke="#14213d" stroke-width="10"/>
      <path d="M503 393 C435 390 403 360 382 325" fill="none" stroke="#14213d" stroke-width="20" stroke-linecap="round"/>
      <rect x="556" y="433" width="24" height="72" rx="10" fill="#14213d"/>
      <rect x="641" y="433" width="24" height="72" rx="10" fill="#14213d"/>
      <circle cx="728" cy="350" r="6" fill="#14213d"/>
    
  <rect x="48" y="552" width="1104" height="78" rx="24" fill="#fffaf0" stroke="#14213d" stroke-width="8"/>
  <text x="83" y="606" fill="#14213d" font-family="Arial, Helvetica, sans-serif" font-size="48" font-weight="900" letter-spacing="0">DINO FARM</text>
</svg>
