<?xml version="1.0" encoding="UTF-8"?>
<svg xmlns="http://www.w3.org/2000/svg" viewBox="0 0 1200 675" role="img" aria-labelledby="title desc">
  <title id="title">DINO FORGE</title>
  <desc id="desc">Game thumbnail for DINO FORGE.</desc>
  <defs>
    <linearGradient id="bg-dino-forge-trial-grounds" x1="0" x2="1" y1="0" y2="1">
      <stop offset="0" stop-color="#fff0c2"/>
      <stop offset="1" stop-color="#ffffff"/>
    </linearGradient>
    <pattern id="dots-dino-forge-trial-grounds" width="42" height="42" patternUnits="userSpaceOnUse">
      <circle cx="8" cy="8" r="3" fill="#9f6400" opacity="0.24"/>
    </pattern>
  </defs>
  <rect width="1200" height="675" rx="36" fill="url(#bg-dino-forge-trial-grounds)"/>
  <rect width="1200" height="675" rx="36" fill="url(#dots-dino-forge-trial-grounds)"/>
  <circle cx="1010" cy="105" r="74" fill="#9f6400" opacity="0.18"/>
  <circle cx="150" cy="110" r="50" fill="#9f6400" opacity="0.15"/>
  
      <ellipse cx="600" cy="408" rx="345" ry="120" fill="#fed7aa" stroke="#14213d" stroke-width="10"/>
      <path d="M280 408 C340 302 455 260 588 295 C713 327 810 318 910 252" fill="none" stroke="#14213d" stroke-width="28" stroke-linecap="round"/>
      <ellipse cx="545" cy="372" rx="150" ry="72" fill="#f59e0b" stroke="#14213d" stroke-width="10"/>
      <circle cx="690" cy="328" r="48" fill="#f59e0b" stroke="#14213d" stroke-width="10"/>
      <path d="M388 354 L320 298 L435 320 Z" fill="#ef4444" stroke="#14213d" stroke-width="8"/>
      <rect x="468" y="430" width="28" height="80" rx="12" fill="#14213d"/>
      <rect x="585" y="430" width="28" height="80" rx="12" fill="#14213d"/>
      <path d="M778 282 L846 224 L812 310 Z" fill="#fb7185" stroke="#14213d" stroke-width="8"/>
      <circle cx="708" cy="318" r="7" fill="#14213d"/>
    
  <rect x="48" y="552" width="1104" height="78" rx="24" fill="#fffaf0" stroke="#14213d" stroke-width="8"/>
  <text x="83" y="606" fill="#14213d" font-family="Arial, Helvetica, sans-serif" font-size="48" font-weight="900" letter-spacing="0">DINO FORGE</text>
</svg>
