<?xml version="1.0" encoding="UTF-8"?>
<svg xmlns="http://www.w3.org/2000/svg" viewBox="0 0 1200 675" role="img" aria-labelledby="title desc">
  <title id="title">GREEN MAHJONG</title>
  <desc id="desc">Game thumbnail for GREEN MAHJONG.</desc>
  <defs>
    <linearGradient id="bg-green-mahjong" x1="0" x2="1" y1="0" y2="1">
      <stop offset="0" stop-color="#dcfce7"/>
      <stop offset="1" stop-color="#ffffff"/>
    </linearGradient>
    <pattern id="dots-green-mahjong" width="42" height="42" patternUnits="userSpaceOnUse">
      <circle cx="8" cy="8" r="3" fill="#197a4a" opacity="0.24"/>
    </pattern>
  </defs>
  <rect width="1200" height="675" rx="36" fill="url(#bg-green-mahjong)"/>
  <rect width="1200" height="675" rx="36" fill="url(#dots-green-mahjong)"/>
  <circle cx="1010" cy="105" r="74" fill="#197a4a" opacity="0.18"/>
  <circle cx="150" cy="110" r="50" fill="#197a4a" opacity="0.15"/>
  
      <rect x="218" y="220" width="150" height="120" rx="18" fill="#fffaf0" stroke="#14213d" stroke-width="10"/>
      <rect x="388" y="185" width="150" height="120" rx="18" fill="#fffaf0" stroke="#14213d" stroke-width="10"/>
      <rect x="558" y="220" width="150" height="120" rx="18" fill="#fffaf0" stroke="#14213d" stroke-width="10"/>
      <rect x="728" y="185" width="150" height="120" rx="18" fill="#fffaf0" stroke="#14213d" stroke-width="10"/>
      <rect x="305" y="360" width="150" height="120" rx="18" fill="#fffaf0" stroke="#14213d" stroke-width="10"/>
      <rect x="475" y="325" width="150" height="120" rx="18" fill="#fffaf0" stroke="#14213d" stroke-width="10"/>
      <rect x="645" y="360" width="150" height="120" rx="18" fill="#fffaf0" stroke="#14213d" stroke-width="10"/>
      <circle cx="293" cy="280" r="22" fill="#22c55e"/>
      <circle cx="463" cy="245" r="22" fill="#ef4444"/>
      <path d="M615 252 L582 305 H648 Z" fill="#0ea5e9"/>
      <path d="M783 224 H823 V264 H783 Z" fill="#f59e0b"/>
      <circle cx="380" cy="420" r="22" fill="#22c55e"/>
      <circle cx="720" cy="420" r="22" fill="#ef4444"/>
    
  <rect x="48" y="552" width="1104" height="78" rx="24" fill="#fffaf0" stroke="#14213d" stroke-width="8"/>
  <text x="83" y="606" fill="#14213d" font-family="Arial, Helvetica, sans-serif" font-size="48" font-weight="900" letter-spacing="0">GREEN MAHJONG</text>
</svg>
