<?xml version="1.0" encoding="UTF-8"?>
<svg xmlns="http://www.w3.org/2000/svg" viewBox="0 0 1200 675" role="img" aria-labelledby="title desc">
  <title id="title">HEXTRIS</title>
  <desc id="desc">Game thumbnail for HEXTRIS.</desc>
  <defs>
    <linearGradient id="bg-hextris" x1="0" x2="1" y1="0" y2="1">
      <stop offset="0" stop-color="#e9e5ff"/>
      <stop offset="1" stop-color="#ffffff"/>
    </linearGradient>
    <pattern id="dots-hextris" width="42" height="42" patternUnits="userSpaceOnUse">
      <circle cx="8" cy="8" r="3" fill="#6654e8" opacity="0.24"/>
    </pattern>
  </defs>
  <rect width="1200" height="675" rx="36" fill="url(#bg-hextris)"/>
  <rect width="1200" height="675" rx="36" fill="url(#dots-hextris)"/>
  <circle cx="1010" cy="105" r="74" fill="#6654e8" opacity="0.18"/>
  <circle cx="150" cy="110" r="50" fill="#6654e8" opacity="0.15"/>
  
      <polygon points="600,165 770,265 770,462 600,562 430,462 430,265" fill="#ffffff" stroke="#14213d" stroke-width="14"/>
      <polygon points="600,220 720,292 720,435 600,508 480,435 480,292" fill="#ede9fe" stroke="#14213d" stroke-width="10"/>
      <rect x="525" y="105" width="150" height="58" rx="14" fill="#fb7185" stroke="#14213d" stroke-width="8"/>
      <rect x="778" y="360" width="58" height="150" rx="14" fill="#facc15" stroke="#14213d" stroke-width="8"/>
      <rect x="365" y="360" width="58" height="150" rx="14" fill="#38bdf8" stroke="#14213d" stroke-width="8"/>
      <rect x="680" y="172" width="58" height="150" rx="14" fill="#34d399" stroke="#14213d" stroke-width="8" transform="rotate(60 709 247)"/>
      <rect x="462" y="172" width="58" height="150" rx="14" fill="#a78bfa" stroke="#14213d" stroke-width="8" transform="rotate(-60 491 247)"/>
    
  <rect x="48" y="552" width="1104" height="78" rx="24" fill="#fffaf0" stroke="#14213d" stroke-width="8"/>
  <text x="83" y="606" fill="#14213d" font-family="Arial, Helvetica, sans-serif" font-size="48" font-weight="900" letter-spacing="0">HEXTRIS</text>
</svg>
