<?xml version="1.0" encoding="UTF-8"?>
<svg xmlns="http://www.w3.org/2000/svg" viewBox="0 0 1200 675" role="img" aria-labelledby="title desc">
  <title id="title">PURRFECT PEST</title>
  <desc id="desc">Game thumbnail for PURRFECT PEST.</desc>
  <defs>
    <linearGradient id="bg-purrfect-pest-pounce" x1="0" x2="1" y1="0" y2="1">
      <stop offset="0" stop-color="#ffe1dc"/>
      <stop offset="1" stop-color="#ffffff"/>
    </linearGradient>
    <pattern id="dots-purrfect-pest-pounce" width="42" height="42" patternUnits="userSpaceOnUse">
      <circle cx="8" cy="8" r="3" fill="#b63828" opacity="0.24"/>
    </pattern>
  </defs>
  <rect width="1200" height="675" rx="36" fill="url(#bg-purrfect-pest-pounce)"/>
  <rect width="1200" height="675" rx="36" fill="url(#dots-purrfect-pest-pounce)"/>
  <circle cx="1010" cy="105" r="74" fill="#b63828" opacity="0.18"/>
  <circle cx="150" cy="110" r="50" fill="#b63828" opacity="0.15"/>
  
      <circle cx="565" cy="345" r="150" fill="#f8fafc" stroke="#14213d" stroke-width="10"/>
      <path d="M462 230 L385 128 L388 296 Z" fill="#f8fafc" stroke="#14213d" stroke-width="10"/>
      <path d="M668 230 L745 128 L742 296 Z" fill="#f8fafc" stroke="#14213d" stroke-width="10"/>
      <circle cx="515" cy="330" r="16" fill="#14213d"/>
      <circle cx="615" cy="330" r="16" fill="#14213d"/>
      <path d="M555 365 L575 365 L565 382 Z" fill="#fb7185" stroke="#14213d" stroke-width="6"/>
      <path d="M430 420 C338 414 292 370 280 306" fill="none" stroke="#14213d" stroke-width="16" stroke-linecap="round"/>
      <ellipse cx="864" cy="386" rx="48" ry="28" fill="#a3e635" stroke="#14213d" stroke-width="8"/>
      <path d="M825 358 L790 325 M835 358 L810 318 M895 358 L930 325 M885 358 L910 318" stroke="#14213d" stroke-width="8" stroke-linecap="round"/>
    
  <rect x="48" y="552" width="1104" height="78" rx="24" fill="#fffaf0" stroke="#14213d" stroke-width="8"/>
  <text x="83" y="606" fill="#14213d" font-family="Arial, Helvetica, sans-serif" font-size="48" font-weight="900" letter-spacing="0">PURRFECT PEST</text>
</svg>
