<?xml version="1.0" encoding="UTF-8"?>
<svg xmlns="http://www.w3.org/2000/svg" viewBox="0 0 1200 675" role="img" aria-labelledby="title desc">
  <title id="title">REEF HUNTER</title>
  <desc id="desc">Game thumbnail for REEF HUNTER.</desc>
  <defs>
    <linearGradient id="bg-reef-hunter" x1="0" x2="1" y1="0" y2="1">
      <stop offset="0" stop-color="#c7f9ff"/>
      <stop offset="1" stop-color="#ffffff"/>
    </linearGradient>
    <pattern id="dots-reef-hunter" width="42" height="42" patternUnits="userSpaceOnUse">
      <circle cx="8" cy="8" r="3" fill="#0476a8" opacity="0.24"/>
    </pattern>
  </defs>
  <rect width="1200" height="675" rx="36" fill="url(#bg-reef-hunter)"/>
  <rect width="1200" height="675" rx="36" fill="url(#dots-reef-hunter)"/>
  <circle cx="1010" cy="105" r="74" fill="#0476a8" opacity="0.18"/>
  <circle cx="150" cy="110" r="50" fill="#0476a8" opacity="0.15"/>
  
      <path d="M0 245 C220 185 350 302 570 240 C770 182 935 210 1200 150 L1200 675 L0 675 Z" fill="#0891b2"/>
      <path d="M0 440 C220 388 330 486 520 435 C755 372 915 430 1200 350 L1200 675 L0 675 Z" fill="#0e7490"/>
      <circle cx="485" cy="368" r="42" fill="#111827" stroke="#fffaf0" stroke-width="10"/>
      <path d="M520 385 L638 425" stroke="#fffaf0" stroke-width="18" stroke-linecap="round"/>
      <path d="M648 423 L746 382" stroke="#fbbf24" stroke-width="10" stroke-linecap="round"/>
      <path d="M820 330 C900 285 980 325 1034 378 C965 422 890 415 820 330 Z" fill="#f97316" stroke="#14213d" stroke-width="10"/>
      <circle cx="985" cy="358" r="7" fill="#14213d"/>
      <path d="M250 518 C275 455 300 455 326 518 M335 518 C365 430 395 430 420 518" stroke="#f472b6" stroke-width="22" stroke-linecap="round"/>
    
  <rect x="48" y="552" width="1104" height="78" rx="24" fill="#fffaf0" stroke="#14213d" stroke-width="8"/>
  <text x="83" y="606" fill="#14213d" font-family="Arial, Helvetica, sans-serif" font-size="48" font-weight="900" letter-spacing="0">REEF HUNTER</text>
</svg>
